<?xml version="1.0" encoding="UTF-8" standalone="no"?>
<!DOCTYPE svg PUBLIC "-//W3C//DTD SVG 1.1//EN" "http://www.w3.org/Graphics/SVG/1.1/DTD/svg11.dtd">
<svg viewBox="0 0 11 8.5" version="1.1" xmlns="http://www.w3.org/2000/svg" xmlns:xlink="http://www.w3.org/1999/xlink" width="11in" height="8.5in" stroke="#BBB" stroke-width=".005" fill="transparent">
	<defs>
		<g id="col">
			<rect x=".35" y="0.65" width=".3" height=".3" />
			<rect x=".35" y="0.95" width=".3" height=".3" />
			<rect x=".35" y="1.25" width=".3" height=".3" />
			<rect x=".35" y="1.55" width=".3" height=".3" />
			<rect x=".35" y="1.85" width=".3" height=".3" />
			<rect x=".35" y="2.15" width=".3" height=".3" />
			<rect x=".35" y="2.45" width=".3" height=".3" />
			<rect x=".35" y="2.75" width=".3" height=".3" />
			<rect x=".35" y="3.05" width=".3" height=".3" />
			<rect x=".35" y="3.35" width=".3" height=".3" />
			<rect x=".35" y="3.65" width=".3" height=".3" />
			<rect x=".35" y="3.95" width=".3" height=".3" />
			<rect x=".35" y="4.25" width=".3" height=".3" />
			<rect x=".35" y="4.55" width=".3" height=".3" />
			<rect x=".35" y="4.85" width=".3" height=".3" />
			<rect x=".35" y="5.15" width=".3" height=".3" />
			<rect x=".35" y="5.45" width=".3" height=".3" />
			<rect x=".35" y="5.75" width=".3" height=".3" />
			<rect x=".35" y="6.05" width=".3" height=".3" />
			<rect x=".35" y="6.35" width=".3" height=".3" />
			<rect x=".35" y="6.65" width=".3" height=".3" />
			<rect x=".35" y="6.95" width=".3" height=".3" />
			<rect x=".35" y="7.25" width=".3" height=".3" />
			<rect x=".35" y="7.55" width=".3" height=".3" />
		</g>
	</defs>
	<use xlink:href="#col" transform="translate(0.4)" />
	<use xlink:href="#col" transform="translate(0.8)" />
	<use xlink:href="#col" transform="translate(1.2)" />
	<use xlink:href="#col" transform="translate(1.6)" />
	<use xlink:href="#col" transform="translate(2.0)" />
	<use xlink:href="#col" transform="translate(2.4)" />
	<use xlink:href="#col" transform="translate(2.8)" />
	<use xlink:href="#col" transform="translate(3.2)" />
	<use xlink:href="#col" transform="translate(3.6)" />
	<use xlink:href="#col" transform="translate(4.0)" />
	<use xlink:href="#col" transform="translate(4.4)" />
	<use xlink:href="#col" transform="translate(5.6)" />
	<use xlink:href="#col" transform="translate(6.0)" />
	<use xlink:href="#col" transform="translate(6.4)" />
	<use xlink:href="#col" transform="translate(6.8)" />
	<use xlink:href="#col" transform="translate(7.2)" />
	<use xlink:href="#col" transform="translate(7.6)" />
	<use xlink:href="#col" transform="translate(8.0)" />
	<use xlink:href="#col" transform="translate(8.4)" />
	<use xlink:href="#col" transform="translate(8.8)" />
	<use xlink:href="#col" transform="translate(9.2)" />
	<use xlink:href="#col" transform="translate(9.6)" />
</svg>
